<?xml version="1.0" standalone="no"?>
<!DOCTYPE svg PUBLIC "-//W3C//DTD SVG 20010904//EN"
 "http://www.w3.org/TR/2001/REC-SVG-20010904/DTD/svg10.dtd">
<svg version="1.0" xmlns="http://www.w3.org/2000/svg"
 width="1280.000000pt" height="966.000000pt" viewBox="0 0 1280.000000 966.000000"
 preserveAspectRatio="xMidYMid meet">
<metadata>
Created by potrace 1.15, written by Peter Selinger 2001-2017
</metadata>
<g transform="translate(0.000000,966.000000) scale(0.100000,-0.100000)"
fill="#000000" stroke="none">
<path d="M6265 9654 c-11 -2 -45 -9 -75 -15 -122 -24 -283 -119 -373 -219 -98
-109 -141 -220 -140 -365 1 -203 104 -395 253 -474 l60 -32 1 -97 c0 -53 4
-227 8 -387 5 -159 7 -291 7 -292 -5 -7 -224 65 -305 99 -132 57 -221 112
-302 186 -125 115 -154 216 -137 471 14 206 -6 299 -98 442 -89 140 -253 285
-468 413 -115 69 -143 74 -276 52 -138 -23 -231 -56 -450 -161 -1148 -552
-2126 -775 -3300 -750 -320 6 -455 -1 -551 -29 -85 -26 -119 -50 -119 -87 0
-17 74 -91 134 -134 83 -58 150 -91 385 -185 212 -85 387 -140 511 -160 109
-18 107 -16 77 -48 -30 -31 -47 -72 -47 -110 0 -119 232 -214 630 -258 80 -8
164 -18 187 -20 l42 -5 -16 -33 c-32 -67 5 -120 120 -175 164 -77 378 -113
564 -93 60 7 140 19 178 27 39 8 73 15 78 15 4 0 7 -17 7 -38 0 -92 79 -172
208 -213 125 -39 383 -36 503 5 49 17 59 14 35 -9 -22 -23 -30 -59 -16 -84 37
-70 330 -131 634 -131 61 0 121 -3 133 -6 21 -6 20 -8 -17 -33 -265 -178 -392
-416 -336 -627 33 -124 120 -237 249 -321 145 -95 389 -196 597 -247 97 -25
189 -42 203 -38 23 6 -1 -18 -54 -53 -95 -62 -217 -197 -262 -288 -41 -84 -67
-178 -67 -245 0 -55 66 -227 116 -302 56 -83 192 -212 296 -281 111 -73 281
-158 396 -197 l83 -29 -65 -38 c-114 -66 -204 -153 -246 -236 -35 -68 -60
-179 -60 -267 0 -174 86 -334 240 -447 25 -18 147 -88 270 -155 124 -67 244
-133 268 -147 l43 -25 -83 -87 c-96 -101 -190 -249 -213 -336 -9 -35 -15 -102
-15 -162 0 -93 2 -102 18 -96 15 6 15 5 4 -10 -19 -23 -7 -82 28 -138 30 -49
188 -196 246 -231 19 -11 34 -23 34 -27 0 -4 -21 -27 -46 -51 -92 -91 -174
-240 -189 -347 -13 -98 52 -233 169 -346 l63 -61 -41 -80 c-38 -75 -41 -87
-40 -157 1 -86 21 -137 85 -212 30 -34 56 -52 109 -73 l70 -27 0 -61 c0 -132
13 -255 26 -260 8 -3 60 -8 117 -12 142 -9 147 -6 147 94 l0 78 58 -1 c47 0
66 5 100 27 57 38 76 78 74 157 -2 69 -26 134 -61 165 -29 27 -27 41 19 98 39
49 40 53 40 125 0 45 -6 85 -14 102 -19 35 -80 91 -140 126 -48 28 -61 55 -26
55 36 0 149 49 221 95 135 87 210 175 224 263 6 35 4 42 -9 42 -22 0 -20 17 3
23 25 6 45 78 37 130 -11 66 -98 214 -152 256 l-26 20 46 65 c184 258 176 581
-20 786 -30 31 -54 60 -54 64 0 3 105 57 233 119 264 129 360 195 449 306 59
74 91 135 127 239 25 74 27 110 5 119 -11 4 -12 8 -4 13 18 11 -24 136 -78
228 -56 96 -154 192 -255 252 -43 25 -77 47 -77 50 0 3 45 19 98 37 299 96
590 296 717 492 89 137 122 276 95 403 -16 72 -92 228 -151 305 -22 30 -65 73
-94 96 l-54 41 119 28 c415 95 764 298 845 492 40 96 34 249 -15 378 -42 113
-172 276 -270 340 l-25 16 45 6 c25 3 133 10 240 16 107 6 221 18 254 26 70
18 180 66 191 83 11 19 8 82 -4 94 -6 6 -11 17 -11 23 0 9 18 6 58 -10 150
-59 309 -66 432 -21 208 76 301 159 270 239 -12 33 -13 39 -2 32 31 -19 234
-40 382 -40 183 1 271 15 398 65 161 64 210 126 167 209 l-16 30 73 0 c98 0
325 24 422 45 162 34 280 96 334 175 31 45 27 127 -6 163 -12 13 -22 26 -22
29 0 3 28 11 63 18 94 19 378 97 497 136 120 40 315 133 409 195 221 146 195
224 -86 260 -69 9 -150 9 -330 0 -167 -8 -292 -8 -418 -1 -423 24 -878 69
-1154 116 -380 64 -858 222 -1501 496 -90 39 -169 71 -175 73 -11 2 -56 23
-255 115 -157 73 -193 86 -294 110 -201 49 -269 24 -557 -206 -64 -51 -141
-120 -172 -155 -83 -91 -176 -292 -194 -416 -3 -23 2 -98 12 -167 10 -73 15
-150 12 -182 -8 -80 -50 -157 -126 -234 -134 -135 -314 -221 -586 -279 l-88
-19 6 217 c4 119 10 296 14 394 l6 178 53 35 c62 42 150 133 187 196 73 125
92 301 48 438 -65 204 -243 361 -476 421 -76 19 -266 34 -310 23z m-2456 -515
c-8 -29 -14 -38 -17 -26 -4 19 17 81 25 73 2 -2 -1 -24 -8 -47z m2144 -2390
c40 -6 74 -13 76 -14 4 -5 29 -999 25 -1004 -4 -5 -234 16 -334 29 -36 5 -164
23 -285 39 -121 17 -287 38 -370 46 -82 8 -175 22 -205 31 -140 40 -281 146
-330 248 -34 72 -40 188 -11 244 35 69 102 107 245 139 57 13 128 16 356 15
316 -1 439 11 573 55 124 41 165 95 116 157 l-20 26 46 0 c25 0 79 -5 118 -11z
m1045 -36 c-65 -75 23 -156 197 -184 50 -8 206 -13 415 -15 344 -2 418 -9 516
-45 62 -23 141 -90 160 -136 23 -53 18 -160 -10 -220 -45 -96 -164 -189 -309
-241 -110 -40 -162 -49 -417 -72 -118 -11 -267 -27 -330 -34 -63 -8 -171 -20
-240 -26 -69 -6 -165 -15 -214 -20 -49 -5 -92 -8 -95 -6 -11 7 26 977 37 988
11 11 137 25 231 27 70 1 73 0 59 -16z m-188 -1353 c487 -69 744 -178 766
-325 15 -103 -17 -206 -93 -295 -52 -61 -212 -177 -320 -233 -50 -26 -137 -62
-194 -81 -103 -34 -339 -89 -348 -80 -2 2 1 147 7 321 7 175 15 407 19 516 4
132 10 197 17 197 6 0 72 -9 146 -20z m-737 -287 c4 -147 9 -355 12 -462 4
-154 3 -192 -7 -188 -7 2 -204 109 -438 237 -234 128 -431 232 -439 233 -18 1
-9 92 14 142 55 115 238 213 494 264 128 26 333 51 352 44 3 -1 9 -123 12
-270z m41 -1440 c3 -131 8 -293 10 -361 l4 -123 -27 17 c-195 124 -361 316
-361 416 0 97 107 193 293 263 34 13 65 24 68 24 4 1 10 -106 13 -236z m721
60 c119 -64 214 -120 213 -124 -9 -23 -417 -456 -439 -466 l-27 -11 4 171 c3
95 10 217 17 272 7 55 11 139 9 188 -1 48 0 87 3 87 3 0 102 -53 220 -117z
m186 -11 c16 -18 29 -40 29 -50 0 -10 -9 -4 -24 19 -14 20 -42 51 -63 68 l-38
32 33 -18 c19 -10 47 -33 63 -51z m99 -122 c0 -5 -6 -10 -13 -10 -8 0 -22 -18
-32 -40 -30 -67 -43 -67 -27 0 14 56 17 60 43 60 16 0 29 -4 29 -10z m-550
-1339 c-13 -116 -25 -137 -16 -27 3 43 6 104 7 135 1 53 2 54 10 21 5 -21 4
-73 -1 -129z"/>
</g>
</svg>
